<?xml version="1.0" encoding="UTF-8" standalone="no"?>
<!-- Generator: Adobe Illustrator 16.0.0, SVG Export Plug-In . SVG Version: 6.00 Build 0)  -->

<svg
   xmlns:dc="http://purl.org/dc/elements/1.1/"
   xmlns:cc="http://creativecommons.org/ns#"
   xmlns:rdf="http://www.w3.org/1999/02/22-rdf-syntax-ns#"
   xmlns:svg="http://www.w3.org/2000/svg"
   xmlns="http://www.w3.org/2000/svg"
   xmlns:sodipodi="http://sodipodi.sourceforge.net/DTD/sodipodi-0.dtd"
   xmlns:inkscape="http://www.inkscape.org/namespaces/inkscape"
   version="1.1"
   id="Layer_1"
   x="0px"
   y="0px"
   width="1000"
   height="327.44199"
   viewBox="0 0 1000 327.44198"
   enable-background="new 0 0 800 261.953"
   xml:space="preserve"
   inkscape:version="0.91 r13725"
   sodipodi:docname="Coca-Cola.svg"><metadata
   id="metadata4747"><rdf:RDF><cc:Work
       rdf:about=""><dc:format>image/svg+xml</dc:format><dc:type
         rdf:resource="http://purl.org/dc/dcmitype/StillImage" /><dc:title></dc:title></cc:Work></rdf:RDF></metadata><defs
   id="defs4745" /><sodipodi:namedview
   pagecolor="#ffffff"
   bordercolor="#666666"
   borderopacity="1"
   objecttolerance="10"
   gridtolerance="10"
   guidetolerance="10"
   inkscape:pageopacity="0"
   inkscape:pageshadow="2"
   inkscape:window-width="1366"
   inkscape:window-height="705"
   id="namedview4743"
   showgrid="false"
   inkscape:zoom="0.365"
   inkscape:cx="364.38356"
   inkscape:cy="130.9765"
   inkscape:window-x="-8"
   inkscape:window-y="-8"
   inkscape:window-maximized="1"
   inkscape:current-layer="Layer_1" />
<g
   id="g3"
   transform="matrix(1.2500001,0,0,1.2500001,-1.9366031e-5,7.2898633e-4)">
	<path
   id="path5"
   d="m 307.209,228.509 c -29.768,-19.176 -70.167,-22.541 -135.32,-4.465 -69.457,16.322 -92.615,26.785 -123.028,5.781 -11.684,-10.318 -15.873,-26.931 -12.745,-50.861 7.255,-39.01 26.861,-76.551 61.686,-118.193 19.439,-21.662 37.47,-40.252 61.28,-47.717 18.248,-4.683 16.542,9.658 14.334,11.709 -2.33,0 -6.244,0.367 -9.269,2.341 -2.455,1.904 -9.194,8.052 -9.556,16.322 -0.522,12.66 12.58,10.025 18.231,3.074 6.091,-7.833 15.093,-22.833 8.012,-36.813 C 177.866,4.711 172.738,1.272 166.371,0.101 144.569,-1.145 124.264,9.248 105.525,20.738 64.543,49.207 31.76,88.655 13.21,131.835 2.515,157.888 -7.157,195.208 7.341,225.583 c 11.215,21.076 34.499,32.271 62.278,29.93 19.483,-2.047 43.042,-8.344 58.887,-12.146 15.845,-3.808 96.954,-31.689 123.604,16.836 0,0 8.862,-17.203 31.009,-17.57 18.208,-1.68 44.475,5.271 63.604,19.32 -6.373,-9.584 -24.441,-23.709 -39.514,-33.444 l 0,0 z"
   inkscape:connector-curvature="0"
   style="fill:#e61d2a" />
	<path
   id="path7"
   d="m 180.16,65.674 c -15.17,-9.953 -45.66,9.075 -70.081,41.714 -22.332,29.277 -31.975,63.304 -21.481,79.039 15.611,18.515 44.591,-8.416 56.915,-22.831 l 1.59,-1.685 c 8.381,-9.002 14.856,-19.834 21.123,-30.227 0,0 5.76,-9.514 6.035,-9.954 3.56,-0.656 7.848,-1.681 12.68,-3.072 -0.069,0.218 -18.487,31.176 -16.608,46.542 0.585,4.688 0.138,21.813 16.858,27.008 22.284,3.735 40.078,-13.539 55.776,-28.908 0,0 2.675,-2.559 4.188,-4.02 -0.383,1.533 -0.882,3.578 -0.882,3.578 -6.524,22.688 2.27,27.448 7.771,29.205 16.625,4.833 36.486,-19.32 36.55,-19.32 -0.515,7.608 -2.021,13.902 5.999,18.952 7.57,2.71 15.231,-1.421 21.054,-5.3 20.975,-14.783 37.873,-37.92 51.522,-57.92 l -8.706,0 c -0.103,0 -21.483,30.988 -35.366,37.723 -0.022,0 -2.548,1.297 -4.004,0.271 -1.802,-1.538 -1.091,-4.734 0.022,-6.998 0.07,-0.148 53.603,-92.996 53.603,-92.996 l -25.276,0 c 0,0 -2.761,4.467 -2.986,4.76 -0.17,-0.146 -0.575,-0.914 -0.856,-1.282 -15.66,-21.662 -51.123,11.658 -77.822,50.298 -10.279,14.858 -23.366,31.587 -36.936,43.662 0,0 -20.103,18.428 -28.693,5.188 -3.14,-5.563 -2.174,-13.696 -0.403,-19.037 10.001,-28.469 27.234,-54.306 46.844,-69.896 5.536,-4.315 11.553,-5.563 14.539,-3.733 2.845,1.686 3.304,5.854 1.504,8.709 -4.567,-0.146 -8.226,1.242 -11.201,4.316 -5.86,6.148 -7.896,12.077 -6.033,17.64 9.051,12.88 27.102,-12.589 26.229,-28.104 -0.312,-5.563 -3.28,-10.831 -7.709,-13.395 -6.601,-3.95 -16.671,-2.927 -23.188,0.222 -8.724,3.292 -22.534,14.781 -30.595,23.711 -10.148,11.199 -27.552,23.639 -32.995,22.246 1.783,-4.759 16.484,-34.837 1.019,-46.106 l 0,0 z m 121.861,44.496 c 4.917,-6.805 19.228,-25.029 22.717,-28.102 11.734,-10.323 16.424,-5.781 16.83,-2.563 -10.951,19.613 -23.876,42.082 -36.028,62.282 0.025,-0.072 -3.803,5.781 -3.803,5.781 -5.367,8.195 -10.771,15.221 -19.586,20.124 -1.257,0.368 -3.329,0.515 -4.708,-0.513 -1.66,-1.098 -2.315,-2.928 -2.128,-4.832 0.528,-6.292 6.935,-25.536 26.706,-52.177 l 0,0 z m -137.505,11.782 c 0,0 -0.22,0.661 -0.329,0.877 -0.028,0 -11.02,17.928 -11.02,17.928 -6.634,8.857 -14.917,19.984 -25.271,25.324 -3.069,1.025 -7.311,1.685 -9.473,-1.021 -4.583,-5.49 -2.221,-13.101 -0.302,-19.248 l 0.679,-2.196 c 5.502,-14.928 14.232,-28.104 22.729,-40.326 0.106,-0.072 0.344,-0.145 0.43,-0.145 0.02,0.073 0.054,0.073 0.069,0.22 5.332,10.244 15.33,14.999 22.807,17.198 0.045,0 0.093,0.073 0.093,0.22 0.001,0.218 -0.121,0.513 -0.412,1.169 l 0,0 z m 10.414,-21.148 c -0.048,0.146 -4.896,11.269 -4.896,11.269 -0.701,0.585 -1.809,0.293 -3.079,0 l -2.176,-0.368 c -6.833,-2.121 -11.987,-6.659 -13.576,-12.074 -2.192,-10.539 6.811,-18.809 10.778,-21.808 3.806,-2.637 9.723,-4.027 13.159,-1.318 2.119,2.489 2.922,5.708 2.922,9.223 10e-4,4.756 -1.467,10.098 -3.132,15.076 l 0,0 z"
   inkscape:connector-curvature="0"
   style="fill:#e61d2a" />
	<path
   id="path9"
   d="m 494.47,134.759 c -2.437,-5.268 -8.223,-8.635 -14.389,-8.27 -20.023,1.831 -39.608,18.297 -49.891,41.934 -5.396,12.15 -8.341,22.175 -10.272,38.129 6.226,-7.17 18.926,-18.952 33.338,-25.393 0,0 1.961,-15.295 11.961,-28.908 3.784,-5.637 11.357,-14.711 19.86,-12.297 7.429,2.49 4.818,23.055 -5.056,42.957 -7.306,14.639 -18.486,29.28 -29.798,39.377 -10.001,8.49 -24.798,18.735 -37.744,10.832 -8.154,-4.828 -12.313,-14.93 -11.434,-27.957 3.896,-36.957 20.719,-68.427 44.794,-104.287 24.824,-33.299 52.188,-67.476 89.051,-85.702 7.519,-3.805 14.482,-4.683 20.501,-2.341 0,0 -34.604,19.028 -51.099,54.231 -4.196,8.93 -10.032,21.002 -4.155,31.688 3.071,5.561 8.524,6.001 12.914,5.708 20.219,-4.685 33.282,-23.566 43.955,-40.836 6.188,-13.1 11.688,-26.127 11.688,-40.618 0,-1.756 -0.091,-4.097 -0.24,-5.855 9.66,-5.121 29.468,3.952 29.468,3.952 15.479,5.125 48.438,30.375 59.556,35.203 5.423,-6.293 14.335,-15.806 19.353,-20.564 l -7.264,-4.465 C 657.937,24.178 645.644,17.444 633.544,10.785 606.065,-4.216 583.698,1.052 572.314,5.151 c -4.474,1.609 -8.563,3 -8.563,3 -8.448,-9.221 -22.303,-8.345 -32.512,-5.855 -36.714,10.538 -70.801,36.225 -107.346,80.796 -26.868,34.91 -43.534,65.063 -52.417,94.848 -6.847,20.051 -8.928,49.545 7.784,67.037 14.209,14.852 33.05,11.635 46.355,6.294 28.827,-14.198 54.736,-44.791 67.646,-79.993 3.115,-10.464 6.573,-25.247 1.209,-36.519 l 0,0 z M 560.756,24.471 c -3.816,43.765 -37.835,69.455 -46.252,71.501 -5.101,1.023 -13.805,-1.244 -6.035,-19.611 11.443,-24.739 30.979,-45.741 51.94,-56.5 0.51,1.83 0.497,2.998 0.347,4.61 l 0,0 z"
   inkscape:connector-curvature="0"
   style="fill:#e61d2a" />
	<path
   id="path11"
   d="M 762.555,30.031 C 744.256,40.425 725.287,47.156 702.324,44.815 695.96,51.989 689.764,59.38 684.053,66.99 716.282,75.187 750.45,56.964 769.505,39.621 789.663,22.129 800,0.102 800,0.102 c 0,0 -15.11,17.27 -37.445,29.929 l 0,0 z"
   inkscape:connector-curvature="0"
   style="fill:#e61d2a" />
	<polygon
   id="polygon13"
   points="403.184,88.476 416.729,66.476 392.725,66.476 379.185,88.476 "
   style="fill:#e61d2a" />
	<path
   id="path15"
   d="m 702.228,230.546 c -2.581,1.756 -6.207,0.406 -4.851,-3.618 3.377,-10.246 16.803,-31.126 16.803,-31.126 l 37.396,-66.326 -25.616,0 c -1.217,2 -3.821,6.593 -3.821,6.593 -1.185,-1.974 -4.729,-6.364 -6.188,-7.312 -6.258,-3.955 -15.44,-2.085 -21.774,1.5 -27.539,16.103 -47.632,47.918 -63.478,72.729 0,0 -16.681,27.58 -25.941,29.631 -7.229,0.586 -6.483,-9.152 -6.17,-11.421 2.795,-16.396 9.286,-31.983 15.826,-46.108 13.301,-9.221 28.481,-21.296 42.276,-34.542 29.938,-28.618 55.177,-61.039 58.866,-68.284 0,0 -3.993,0.806 -8.708,0.951 -23.032,32.128 -70.164,78.822 -84.453,85.773 6.33,-15.225 47.227,-87.896 82.03,-122.658 l 5.477,-5.271 c 8.468,-8.27 17.243,-16.759 24.081,-18.15 0.722,-0.073 1.652,0 2.455,1.686 0.305,6.439 -2.092,11.197 -4.842,16.612 l -3.854,7.905 c 0,0 5.459,-1.025 9.044,-2.199 4.16,-7.827 8.767,-16.612 7.069,-27.075 -0.567,-3.367 -3.004,-5.928 -6.189,-6.514 -10.382,-1.976 -21.697,5.706 -30.801,11.929 l -0.368,0.218 c -46.801,36.666 -86.321,89.506 -120.872,161.667 -2.504,1.9 -12.179,4.171 -13.824,3.072 3.412,-7.024 7.708,-16.467 9.858,-26.713 0.372,-2.928 0.718,-5.927 0.718,-8.854 0,-6.299 -1.512,-12.225 -7.155,-16.322 -6.616,-3.294 -14.793,-1.756 -20.306,0.731 -24.698,10.246 -43.157,35.57 -56.477,56.425 -7.164,13.25 -14.307,27.441 -16.285,43.691 -1.393,12.732 1.443,20.929 8.682,25.029 7.445,3.803 16.815,-0.15 20.496,-2.051 25.021,-13.173 42.503,-39.591 56.284,-63.744 0.548,-0.072 8.072,-0.29 13.763,-1.756 0.076,0 0.108,0 0.234,0.077 -0.326,1.093 -3.267,9.878 -3.267,9.878 -8.734,25.613 -12.773,43.033 -4.523,53.35 11.789,14.565 31.306,-0.51 47.183,-20.42 -3.408,23.858 8.957,27.592 18.382,25.764 10.827,-2.926 22.892,-14.492 28.491,-20.418 -1.798,6.951 -1.309,19.394 8.54,20.637 6.751,1.248 11.803,-2.424 17.649,-5.572 20.969,-11.418 46.07,-49.465 52.587,-60.465 l -8.545,0 c -9.264,14.001 -21.053,32.358 -35.882,41.071 l 0,0 z M 514.01,227.998 c -1.33,-1.976 -1.771,-4.137 -1.815,-6.473 -0.255,-14.35 15.184,-40.049 26.082,-54.049 0.023,0 0.023,0 0.023,0 4.567,10 14.909,16.428 21.152,19.137 -7.754,17.273 -34.347,54.265 -45.442,41.385 l 0,0 z m 49.818,-49.107 c -0.739,0.515 -13.78,-3.878 -16.3,-15.953 -2.138,-10.396 5.021,-18.519 11.947,-22.614 2.973,-2.343 7.451,-3.146 10.736,-1.98 3.049,2.052 3.875,5.714 3.875,9.66 0,2.42 -0.321,4.906 -0.604,7.174 0,0 -0.054,0.441 -0.063,0.514 -2.173,8.121 -5.498,16.099 -9.591,23.199 l 0,0 z m 104.596,44.497 c -0.011,0 -2.474,2.195 -2.474,2.195 -3.518,3.145 -7.138,6.512 -11.508,4.828 -1.207,-0.439 -2.056,-2.047 -2.26,-3.295 -0.199,-9.002 3.855,-17.343 7.786,-25.465 l 1.008,-2.124 c 11.308,-18.881 24.452,-41.129 43.756,-56.569 3.253,-2.347 6.783,-4.319 10.509,-2.781 0.857,0.803 1.855,2.195 1.855,3.584 0,0.441 -0.391,1.611 -0.617,1.975 -5.391,8.713 -10.526,17.86 -15.519,26.641 -9.758,17.346 -19.881,35.274 -32.536,51.011 l 0,0 z"
   inkscape:connector-curvature="0"
   style="fill:#e61d2a" />
</g>
</svg>